<svg width="3507" height="778" viewBox="0 0 3507 778" fill="none" xmlns="http://www.w3.org/2000/svg">
<path d="M392.88 777.8C338.16 777.8 287.04 768.08 239.52 748.64C192 728.48 150.24 700.76 114.24 665.48C78.24 630.2 50.16 589.16 30 542.36C10.56 494.84 0.84 443.72 0.84 389C0.84 335 10.56 284.6 30 237.8C50.16 191 77.88 150.32 113.16 115.76C149.16 80.48 190.92 53.12 238.44 33.68C285.96 14.24 337.08 4.51997 391.8 4.51997C429.96 4.51997 467.04 9.91996 503.04 20.72C539.76 31.5199 572.88 46.6399 602.4 66.0799C631.92 85.52 656.04 107.84 674.76 133.04L599.16 211.88C577.56 191 555.24 173.72 532.2 160.04C509.88 146.36 486.84 135.92 463.08 128.72C439.32 121.52 415.56 117.92 391.8 117.92C352.92 117.92 316.92 124.76 283.8 138.44C251.4 152.12 222.6 171.2 197.4 195.68C172.92 220.16 153.84 248.96 140.16 282.08C126.48 314.48 119.64 350.12 119.64 389C119.64 426.44 126.84 462.08 141.24 495.92C155.64 529.04 175.44 558.2 200.64 583.4C226.56 608.6 256.08 628.4 289.2 642.8C323.04 657.2 358.68 664.4 396.12 664.4C424.2 664.4 450.84 660.44 476.04 652.52C501.24 643.88 523.56 632 543 616.88C562.44 601.76 577.56 584.48 588.36 565.04C599.16 544.88 604.56 523.64 604.56 501.32V479.72L620.76 494.84H389.64V379.28H724.44C725.88 387.2 726.96 395.12 727.68 403.04C728.4 410.24 728.76 417.44 728.76 424.64C729.48 431.12 729.84 437.6 729.84 444.08C729.84 493.76 721.2 539.12 703.92 580.16C686.64 620.48 662.52 655.4 631.56 684.92C601.32 714.44 565.68 737.48 524.64 754.04C484.32 769.88 440.4 777.8 392.88 777.8ZM997.57 767L1290.25 10.9999H1409.05L1699.57 767H1575.37L1402.57 311.24C1400.41 306.2 1396.09 293.96 1389.61 274.52C1383.85 255.08 1377.01 233.48 1369.09 209.72C1361.17 185.96 1353.97 164.36 1347.49 144.92C1341.01 124.76 1336.69 111.8 1334.53 106.04L1359.37 104.96C1355.05 117.2 1349.65 132.68 1343.17 151.4C1337.41 170.12 1330.93 189.92 1323.73 210.8C1317.25 231.68 1310.77 251.48 1304.29 270.2C1297.81 288.2 1292.41 303.32 1288.09 315.56L1116.37 767H997.57ZM1127.17 579.08L1170.37 466.76H1513.81L1563.49 579.08H1127.17Z" fill="white"/>
<path d="M2260.6 777.8C2219.56 777.8 2181.4 772.4 2146.12 761.6C2111.56 750.8 2079.88 734.6 2051.08 713C2023 690.68 1997.8 663.32 1975.48 630.92L2055.4 539.12C2090.68 589.52 2124.52 624.44 2156.92 643.88C2189.32 663.32 2227.84 673.04 2272.48 673.04C2299.84 673.04 2324.68 668.72 2347 660.08C2369.32 651.44 2386.96 639.56 2399.92 624.44C2412.88 609.32 2419.36 592.04 2419.36 572.6C2419.36 559.64 2417.2 547.4 2412.88 535.88C2408.56 524.36 2401.72 513.92 2392.36 504.56C2383.72 495.2 2372.2 486.56 2357.8 478.64C2344.12 470.72 2327.92 463.88 2309.2 458.12C2290.48 451.64 2268.88 446.24 2244.4 441.92C2205.52 434 2171.68 423.56 2142.88 410.6C2114.08 397.64 2089.96 381.44 2070.52 362C2051.08 342.56 2036.68 320.6 2027.32 296.12C2017.96 270.92 2013.28 242.84 2013.28 211.88C2013.28 181.64 2019.76 153.56 2032.72 127.64C2046.4 101.72 2064.76 79.4 2087.8 60.68C2111.56 41.2399 2139.28 26.4799 2170.96 16.3999C2202.64 5.59995 2236.84 0.199959 2273.56 0.199959C2312.44 0.199959 2348.08 5.23996 2380.48 15.32C2412.88 25.4 2441.68 40.52 2466.88 60.68C2492.08 80.12 2512.96 104.24 2529.52 133.04L2447.44 214.04C2433.04 190.28 2416.84 170.48 2398.84 154.64C2380.84 138.08 2361.04 125.84 2339.44 117.92C2317.84 109.28 2294.8 104.96 2270.32 104.96C2242.24 104.96 2217.76 109.28 2196.88 117.92C2176 126.56 2159.44 138.8 2147.2 154.64C2135.68 169.76 2129.92 187.76 2129.92 208.64C2129.92 223.76 2132.8 237.8 2138.56 250.76C2144.32 263 2152.96 274.16 2164.48 284.24C2176.72 293.6 2192.92 302.24 2213.08 310.16C2233.24 317.36 2257.36 323.84 2285.44 329.6C2325.04 338.24 2360.32 349.4 2391.28 363.08C2422.24 376.04 2448.52 391.52 2470.12 409.52C2491.72 427.52 2507.92 447.68 2518.72 470C2530.24 492.32 2536 516.44 2536 542.36C2536 590.6 2524.84 632.36 2502.52 667.64C2480.2 702.92 2448.52 730.28 2407.48 749.72C2366.44 768.44 2317.48 777.8 2260.6 777.8ZM3389.52 767V10.9999H3506.16V767H3389.52ZM2895.96 767V10.9999H3012.6V767H2895.96ZM2946.72 446.24V333.92H3441.36V446.24H2946.72Z" fill="#F79817"/>
</svg>
